<mxfile host="app.diagrams.net" modified="2023-12-10T17:06:06.931Z" agent="Mozilla/5.0 (Macintosh; Intel Mac OS X 10_15_7) AppleWebKit/537.36 (KHTML, like Gecko) Chrome/119.0.0.0 Safari/537.36 Edg/119.0.0.0" etag="Wxj4KuP61mubr4c8nC-H" version="22.1.7" type="github">
  <diagram name="第 1 页" id="Q8nGrChluKrUti9Qc9YC">
    <mxGraphModel dx="1254" dy="616" grid="0" gridSize="10" guides="1" tooltips="1" connect="1" arrows="1" fold="1" page="1" pageScale="1" pageWidth="827" pageHeight="1169" background="none" math="0" shadow="0">
      <root>
        <mxCell id="0" />
        <mxCell id="1" parent="0" />
        <mxCell id="u0t3mCDyOcz4uBVGWVU5-5" style="edgeStyle=orthogonalEdgeStyle;rounded=0;orthogonalLoop=1;jettySize=auto;html=1;exitX=1;exitY=0.5;exitDx=0;exitDy=0;" edge="1" parent="1" source="u0t3mCDyOcz4uBVGWVU5-2" target="u0t3mCDyOcz4uBVGWVU5-4">
          <mxGeometry relative="1" as="geometry" />
        </mxCell>
        <mxCell id="u0t3mCDyOcz4uBVGWVU5-2" value="供书部门" style="rounded=0;whiteSpace=wrap;html=1;" vertex="1" parent="1">
          <mxGeometry x="80" y="550" width="120" height="60" as="geometry" />
        </mxCell>
        <mxCell id="u0t3mCDyOcz4uBVGWVU5-6" style="edgeStyle=orthogonalEdgeStyle;rounded=0;orthogonalLoop=1;jettySize=auto;html=1;exitX=1;exitY=0.5;exitDx=0;exitDy=0;entryX=0;entryY=0.75;entryDx=0;entryDy=0;" edge="1" parent="1" source="u0t3mCDyOcz4uBVGWVU5-3" target="u0t3mCDyOcz4uBVGWVU5-4">
          <mxGeometry relative="1" as="geometry" />
        </mxCell>
        <mxCell id="u0t3mCDyOcz4uBVGWVU5-3" value="订书单位" style="rounded=0;whiteSpace=wrap;html=1;" vertex="1" parent="1">
          <mxGeometry x="80" y="670" width="120" height="60" as="geometry" />
        </mxCell>
        <mxCell id="u0t3mCDyOcz4uBVGWVU5-13" value="" style="edgeStyle=orthogonalEdgeStyle;rounded=0;orthogonalLoop=1;jettySize=auto;html=1;" edge="1" parent="1" source="u0t3mCDyOcz4uBVGWVU5-4" target="u0t3mCDyOcz4uBVGWVU5-12">
          <mxGeometry relative="1" as="geometry" />
        </mxCell>
        <mxCell id="u0t3mCDyOcz4uBVGWVU5-34" value="" style="edgeStyle=orthogonalEdgeStyle;rounded=0;orthogonalLoop=1;jettySize=auto;html=1;" edge="1" parent="1" source="u0t3mCDyOcz4uBVGWVU5-4" target="u0t3mCDyOcz4uBVGWVU5-33">
          <mxGeometry relative="1" as="geometry" />
        </mxCell>
        <mxCell id="u0t3mCDyOcz4uBVGWVU5-4" value="初步检查" style="whiteSpace=wrap;html=1;" vertex="1" parent="1">
          <mxGeometry x="280" y="610" width="120" height="60" as="geometry" />
        </mxCell>
        <mxCell id="u0t3mCDyOcz4uBVGWVU5-7" value="供书书目" style="text;html=1;align=center;verticalAlign=middle;resizable=0;points=[];autosize=1;strokeColor=none;fillColor=none;" vertex="1" parent="1">
          <mxGeometry x="200" y="550" width="70" height="30" as="geometry" />
        </mxCell>
        <mxCell id="u0t3mCDyOcz4uBVGWVU5-8" value="订书书目" style="text;html=1;align=center;verticalAlign=middle;resizable=0;points=[];autosize=1;strokeColor=none;fillColor=none;" vertex="1" parent="1">
          <mxGeometry x="208" y="700" width="70" height="30" as="geometry" />
        </mxCell>
        <mxCell id="u0t3mCDyOcz4uBVGWVU5-10" value="" style="edgeStyle=orthogonalEdgeStyle;rounded=0;orthogonalLoop=1;jettySize=auto;html=1;" edge="1" parent="1" source="u0t3mCDyOcz4uBVGWVU5-9" target="u0t3mCDyOcz4uBVGWVU5-4">
          <mxGeometry relative="1" as="geometry" />
        </mxCell>
        <mxCell id="u0t3mCDyOcz4uBVGWVU5-9" value="订书记录" style="shape=partialRectangle;whiteSpace=wrap;html=1;left=0;right=0;fillColor=none;" vertex="1" parent="1">
          <mxGeometry x="280" y="499" width="120" height="38" as="geometry" />
        </mxCell>
        <mxCell id="u0t3mCDyOcz4uBVGWVU5-11" value="已定书目" style="text;html=1;align=center;verticalAlign=middle;resizable=0;points=[];autosize=1;strokeColor=none;fillColor=none;" vertex="1" parent="1">
          <mxGeometry x="274" y="561" width="70" height="30" as="geometry" />
        </mxCell>
        <mxCell id="u0t3mCDyOcz4uBVGWVU5-12" value="订书单位" style="whiteSpace=wrap;html=1;" vertex="1" parent="1">
          <mxGeometry x="280" y="760" width="120" height="60" as="geometry" />
        </mxCell>
        <mxCell id="u0t3mCDyOcz4uBVGWVU5-14" value="重复订购书目" style="text;html=1;align=center;verticalAlign=middle;resizable=0;points=[];autosize=1;strokeColor=none;fillColor=none;" vertex="1" parent="1">
          <mxGeometry x="338" y="700" width="100" height="30" as="geometry" />
        </mxCell>
        <mxCell id="u0t3mCDyOcz4uBVGWVU5-20" value="" style="endArrow=none;html=1;rounded=0;" edge="1" parent="1">
          <mxGeometry width="50" height="50" relative="1" as="geometry">
            <mxPoint x="173" y="730" as="sourcePoint" />
            <mxPoint x="200" y="705" as="targetPoint" />
          </mxGeometry>
        </mxCell>
        <mxCell id="u0t3mCDyOcz4uBVGWVU5-24" value="" style="endArrow=none;html=1;rounded=0;" edge="1" parent="1">
          <mxGeometry width="50" height="50" relative="1" as="geometry">
            <mxPoint x="373" y="820" as="sourcePoint" />
            <mxPoint x="400" y="795" as="targetPoint" />
          </mxGeometry>
        </mxCell>
        <mxCell id="u0t3mCDyOcz4uBVGWVU5-28" value="" style="endArrow=none;html=1;rounded=0;exitX=0.145;exitY=1.023;exitDx=0;exitDy=0;exitPerimeter=0;" edge="1" parent="1" source="u0t3mCDyOcz4uBVGWVU5-9">
          <mxGeometry width="50" height="50" relative="1" as="geometry">
            <mxPoint x="297" y="534" as="sourcePoint" />
            <mxPoint x="297" y="499" as="targetPoint" />
            <Array as="points">
              <mxPoint x="297" y="516" />
            </Array>
          </mxGeometry>
        </mxCell>
        <mxCell id="u0t3mCDyOcz4uBVGWVU5-30" value="" style="endArrow=none;html=1;rounded=0;exitX=0.145;exitY=1.023;exitDx=0;exitDy=0;exitPerimeter=0;" edge="1" parent="1">
          <mxGeometry width="50" height="50" relative="1" as="geometry">
            <mxPoint x="280" y="537.5" as="sourcePoint" />
            <mxPoint x="280" y="498.5" as="targetPoint" />
            <Array as="points">
              <mxPoint x="280" y="525.5" />
              <mxPoint x="280" y="515.5" />
            </Array>
          </mxGeometry>
        </mxCell>
        <mxCell id="u0t3mCDyOcz4uBVGWVU5-31" value="&lt;font style=&quot;font-size: 9px;&quot;&gt;D1&lt;/font&gt;" style="text;html=1;strokeColor=none;fillColor=none;align=center;verticalAlign=middle;whiteSpace=wrap;rounded=0;" vertex="1" parent="1">
          <mxGeometry x="274" y="506.5" width="31" height="23" as="geometry" />
        </mxCell>
        <mxCell id="u0t3mCDyOcz4uBVGWVU5-48" value="" style="edgeStyle=orthogonalEdgeStyle;rounded=0;orthogonalLoop=1;jettySize=auto;html=1;" edge="1" parent="1" source="u0t3mCDyOcz4uBVGWVU5-33" target="u0t3mCDyOcz4uBVGWVU5-47">
          <mxGeometry relative="1" as="geometry" />
        </mxCell>
        <mxCell id="u0t3mCDyOcz4uBVGWVU5-33" value="记录订书信息" style="whiteSpace=wrap;html=1;" vertex="1" parent="1">
          <mxGeometry x="481" y="610" width="120" height="60" as="geometry" />
        </mxCell>
        <mxCell id="u0t3mCDyOcz4uBVGWVU5-35" value="订书清单" style="text;html=1;align=center;verticalAlign=middle;resizable=0;points=[];autosize=1;strokeColor=none;fillColor=none;" vertex="1" parent="1">
          <mxGeometry x="409" y="613" width="66" height="26" as="geometry" />
        </mxCell>
        <mxCell id="u0t3mCDyOcz4uBVGWVU5-36" value="供书书目" style="text;html=1;align=center;verticalAlign=middle;resizable=0;points=[];autosize=1;strokeColor=none;fillColor=none;" vertex="1" parent="1">
          <mxGeometry x="409" y="644" width="66" height="26" as="geometry" />
        </mxCell>
        <mxCell id="u0t3mCDyOcz4uBVGWVU5-46" value="订书信息" style="text;html=1;align=center;verticalAlign=middle;resizable=0;points=[];autosize=1;strokeColor=none;fillColor=none;" vertex="1" parent="1">
          <mxGeometry x="405" y="545" width="66" height="26" as="geometry" />
        </mxCell>
        <mxCell id="u0t3mCDyOcz4uBVGWVU5-54" style="edgeStyle=orthogonalEdgeStyle;rounded=0;orthogonalLoop=1;jettySize=auto;html=1;exitX=0.5;exitY=1;exitDx=0;exitDy=0;entryX=1;entryY=0.5;entryDx=0;entryDy=0;" edge="1" parent="1" source="u0t3mCDyOcz4uBVGWVU5-47" target="u0t3mCDyOcz4uBVGWVU5-12">
          <mxGeometry relative="1" as="geometry" />
        </mxCell>
        <mxCell id="u0t3mCDyOcz4uBVGWVU5-58" value="" style="edgeStyle=orthogonalEdgeStyle;rounded=0;orthogonalLoop=1;jettySize=auto;html=1;" edge="1" parent="1" source="u0t3mCDyOcz4uBVGWVU5-47" target="u0t3mCDyOcz4uBVGWVU5-57">
          <mxGeometry relative="1" as="geometry" />
        </mxCell>
        <mxCell id="u0t3mCDyOcz4uBVGWVU5-47" value="反馈订书结果" style="whiteSpace=wrap;html=1;" vertex="1" parent="1">
          <mxGeometry x="681" y="610" width="120" height="60" as="geometry" />
        </mxCell>
        <mxCell id="u0t3mCDyOcz4uBVGWVU5-55" style="edgeStyle=orthogonalEdgeStyle;rounded=0;orthogonalLoop=1;jettySize=auto;html=1;exitX=0.5;exitY=0;exitDx=0;exitDy=0;entryX=0.717;entryY=0.985;entryDx=0;entryDy=0;entryPerimeter=0;" edge="1" parent="1" source="u0t3mCDyOcz4uBVGWVU5-33" target="u0t3mCDyOcz4uBVGWVU5-9">
          <mxGeometry relative="1" as="geometry" />
        </mxCell>
        <mxCell id="u0t3mCDyOcz4uBVGWVU5-56" value="订书信息" style="text;html=1;align=center;verticalAlign=middle;resizable=0;points=[];autosize=1;strokeColor=none;fillColor=none;" vertex="1" parent="1">
          <mxGeometry x="599" y="606" width="66" height="26" as="geometry" />
        </mxCell>
        <mxCell id="u0t3mCDyOcz4uBVGWVU5-57" value="供书部门" style="whiteSpace=wrap;html=1;" vertex="1" parent="1">
          <mxGeometry x="681" y="470" width="120" height="60" as="geometry" />
        </mxCell>
        <mxCell id="u0t3mCDyOcz4uBVGWVU5-59" value="订书信息" style="text;html=1;align=center;verticalAlign=middle;resizable=0;points=[];autosize=1;strokeColor=none;fillColor=none;" vertex="1" parent="1">
          <mxGeometry x="740" y="558.5" width="66" height="26" as="geometry" />
        </mxCell>
        <mxCell id="u0t3mCDyOcz4uBVGWVU5-60" value="未订书目" style="text;html=1;align=center;verticalAlign=middle;resizable=0;points=[];autosize=1;strokeColor=none;fillColor=none;" vertex="1" parent="1">
          <mxGeometry x="529" y="752" width="66" height="26" as="geometry" />
        </mxCell>
      </root>
    </mxGraphModel>
  </diagram>
</mxfile>
